<?xml version="1.0" encoding="utf-8"?>
<!-- Generator: Adobe Illustrator 16.0.0, SVG Export Plug-In . SVG Version: 6.00 Build 0)  -->
<!DOCTYPE svg PUBLIC "-//W3C//DTD SVG 1.1//EN" "http://www.w3.org/Graphics/SVG/1.1/DTD/svg11.dtd">
<svg version="1.1" id="Layer_1" xmlns="http://www.w3.org/2000/svg" xmlns:xlink="http://www.w3.org/1999/xlink" x="0px" y="0px"
	 width="2194.998px" height="2194.997px" viewBox="0 0 2194.998 2194.997" enable-background="new 0 0 2194.998 2194.997"
	 xml:space="preserve">
<g>
	<rect fill-rule="evenodd" clip-rule="evenodd" fill="#FBFBFB" width="2194.998" height="2194.997"/>
	<g>
		<g>
			<g>
				<path fill-rule="evenodd" clip-rule="evenodd" fill="#DCDDDD" d="M1766.529,756.396V638.384h-151.731v141.76h127.984
					C1755.897,780.144,1766.529,769.512,1766.529,756.396z"/>
				<path fill-rule="evenodd" clip-rule="evenodd" fill="#004DA1" d="M1714.015,779.912h-104.208c-1.872,0-3.636-0.375-5.294-1.016
					V544.067h-0.159v-7.166c0-26.412,20.852-47.853,46.996-48.868c0.643,0,1.284-0.106,1.926-0.106
					c27.054,0,48.976,21.921,48.976,48.975v181.844h-0.053v48.869c0,3.314,1.282,6.309,3.422,8.554
					C1707.758,778.361,1710.753,779.804,1714.015,779.912z"/>
			</g>
			<path fill-rule="evenodd" clip-rule="evenodd" fill="#DCDDDD" d="M1237.101,487.936c-31.007,0-56.141,25.134-56.141,56.141
				v375.011h423.56V731.12h-0.166V544.076v-7.199c0-26.374,20.876-47.814,46.996-48.844v-0.098H1237.101z"/>
			<rect x="1604.354" y="544.076" fill-rule="evenodd" clip-rule="evenodd" fill="#FFFFFF" width="0.166" height="187.044"/>
		</g>
		<g>
			<path fill-rule="evenodd" clip-rule="evenodd" fill="#FBFBFB" d="M1472.246,597.331h-208.705
				c-7.528,0-13.632,6.103-13.632,13.631v3.888c0,7.528,6.104,13.631,13.632,13.631h208.705c7.528,0,13.633-6.103,13.633-13.631
				v-3.888C1485.878,603.434,1479.774,597.331,1472.246,597.331z"/>
			<path fill-rule="evenodd" clip-rule="evenodd" fill="#FBFBFB" d="M1472.246,702.896h-208.705
				c-7.528,0-13.632,6.103-13.632,13.632v3.886c0,7.528,6.104,13.633,13.632,13.633h208.705c7.528,0,13.633-6.104,13.633-13.633
				v-3.886C1485.878,709,1479.774,702.896,1472.246,702.896z"/>
			<path fill-rule="evenodd" clip-rule="evenodd" fill="#FFFFFF" d="M1334.376,811.924h-70.836c-7.528,0-13.632,6.103-13.632,13.631
				v3.886c0,7.53,6.104,13.633,13.632,13.633h70.836c7.528,0,13.632-6.103,13.632-13.633v-3.886
				C1348.008,818.027,1341.905,811.924,1334.376,811.924z"/>
		</g>
	</g>
	<g>
		<g>
			<path fill-rule="evenodd" clip-rule="evenodd" fill="#004DA1" d="M1671.773,1133.496
				c78.299-40.297,121.523-132.531,118.27-219.805c-0.276-7.432,11.269-8.434,11.553-0.947
				c3.439,92.5-40.907,187.921-125.832,231.633C1669.13,1147.783,1665.225,1136.862,1671.773,1133.496z"/>
		</g>
		<path fill-rule="evenodd" clip-rule="evenodd" fill="#004DA1" d="M1797.958,917.506c0,0,1.845-1.473,4.133-3.992
			c2.333-2.488,5.086-5.95,7.558-10.038c4.905-8.098,7.403-18.317,6.061-28.035c-1.337-9.729-6.548-18.872-13.512-25.312
			c-3.505-3.216-7.15-5.803-10.107-7.555c-2.883-1.768-5.074-2.678-5.074-2.678s-1.876,1.501-4.158,3.981
			c-2.362,2.499-5.121,5.987-7.604,10.045c-4.922,8.125-7.393,18.347-5.99,28.053c1.409,9.716,6.646,18.849,13.591,25.307
			c3.473,3.204,7.102,5.788,10.033,7.535C1795.778,916.582,1797.958,917.506,1797.958,917.506z"/>
		<path fill-rule="evenodd" clip-rule="evenodd" fill="#004DA1" d="M1789.159,980.943c0,0,2.118,1.084,5.317,2.159
			c3.246,1.101,7.522,2.217,12.242,2.802c9.402,1.181,19.768-0.698,28.09-5.89c8.349-5.168,14.587-13.661,17.623-22.642
			c1.518-4.528,2.385-8.888,2.783-12.309c0.438-3.352,0.383-5.717,0.383-5.717s-2.152-1.096-5.33-2.178
			c-3.256-1.145-7.555-2.239-12.287-2.869c-9.412-1.178-19.755,0.73-28.047,5.971c-8.317,5.214-14.525,13.729-17.566,22.713
			c-1.537,4.477-2.414,8.837-2.804,12.246C1789.114,978.574,1789.159,980.943,1789.159,980.943z"/>
		<path fill-rule="evenodd" clip-rule="evenodd" fill="#004DA1" d="M1781.338,1002.235c0,0,0.576-2.294,0.896-5.674
			c0.357-3.386,0.457-7.817-0.022-12.55c-0.958-9.428-5.136-19.09-12.057-26.043c-6.921-6.963-16.592-11.127-26.041-12.06
			c-4.73-0.476-9.195-0.331-12.596,0.046c-3.367,0.345-5.686,0.93-5.686,0.93s-0.582,2.343-0.913,5.693
			c-0.368,3.411-0.483,7.861-0.017,12.598c0.963,9.45,5.172,19.087,12.117,25.988c6.969,6.912,16.654,11.043,26.095,12.003
			c4.718,0.48,9.148,0.351,12.558-0.009C1779.041,1002.812,1781.338,1002.235,1781.338,1002.235z"/>
		<path fill-rule="evenodd" clip-rule="evenodd" fill="#004DA1" d="M1753.406,1068.334c0,0,0.585-2.297,0.883-5.682
			c0.358-3.394,0.486-7.818-0.006-12.566c-0.96-9.417-5.134-19.078-12.063-26.042c-6.925-6.938-16.599-11.121-26.033-12.039
			c-4.745-0.47-9.186-0.348-12.607,0.041c-3.372,0.333-5.671,0.934-5.671,0.934s-0.578,2.318-0.917,5.671
			c-0.376,3.437-0.482,7.874-0.025,12.602c0.963,9.453,5.17,19.102,12.135,25.991c6.948,6.919,16.647,11.06,26.071,12.015
			c4.725,0.478,9.166,0.341,12.566-0.025C1751.101,1068.904,1753.406,1068.334,1753.406,1068.334z"/>
		<path fill-rule="evenodd" clip-rule="evenodd" fill="#004DA1" d="M1769.198,1052.713c0,0,2.118,1.084,5.317,2.159
			c3.246,1.101,7.522,2.217,12.242,2.802c9.402,1.181,19.768-0.698,28.09-5.89c8.349-5.168,14.587-13.661,17.623-22.643
			c1.518-4.527,2.385-8.887,2.783-12.309c0.438-3.352,0.383-5.718,0.383-5.718s-2.152-1.095-5.331-2.177
			c-3.255-1.145-7.554-2.239-12.286-2.869c-9.412-1.178-19.755,0.73-28.047,5.971c-8.318,5.214-14.525,13.729-17.567,22.712
			c-1.536,4.478-2.413,8.837-2.803,12.246C1769.153,1050.345,1769.198,1052.713,1769.198,1052.713z"/>
	</g>
	<g>
		<path fill-rule="evenodd" clip-rule="evenodd" fill="#004DA1" d="M998.279,595.873c0-9.409-7.612-17.021-17.026-17.021H422.297
			c-9.401,0-17.016,7.618-17.016,17.021v47.206h592.998V595.873z"/>
		<path fill-rule="evenodd" clip-rule="evenodd" fill="#F5A627" d="M856.937,610.96c0,10.082-8.15,18.23-18.215,18.23
			c-10.06,0-18.229-8.149-18.229-18.23c0-10.061,8.169-18.215,18.229-18.215C848.786,592.745,856.937,600.899,856.937,610.96z"/>
		<path fill-rule="evenodd" clip-rule="evenodd" fill="#F5A627" d="M911.624,610.96c0,10.082-8.157,18.23-18.217,18.23
			c-10.08,0-18.212-8.149-18.212-18.23c0-10.061,8.132-18.215,18.212-18.215C903.467,592.745,911.616,600.899,911.624,610.96z"/>
		<path fill-rule="evenodd" clip-rule="evenodd" fill="#F5A627" d="M966.321,610.96c0,10.082-8.171,18.23-18.231,18.23
			c-10.077,0-18.237-8.149-18.237-18.23c0.008-10.061,8.158-18.215,18.237-18.215C958.149,592.745,966.321,600.899,966.321,610.96z"
			/>
		<path fill-rule="evenodd" clip-rule="evenodd" fill="#DCDDDD" d="M405.281,643.079v262.288c0,7.507,4.921,13.672,11.69,15.95
			l464.27-278.237H405.281z"/>
		<path fill-rule="evenodd" clip-rule="evenodd" fill="#C9CACA" d="M416.971,921.316c1.692,0.565,3.43,1.08,5.326,1.08h558.969
			c9.401,0,17.008-7.626,17.008-17.03l0.005-262.288H881.241L416.971,921.316z"/>
		<path fill-rule="evenodd" clip-rule="evenodd" fill="#FBFBFB" d="M665.531,707.334h259.635c5.925,0,10.771,4.847,10.771,10.771
			l0,0c0,5.925-4.847,10.771-10.771,10.771H665.531c-5.924,0-10.771-4.846-10.771-10.771l0,0
			C654.76,712.181,659.607,707.334,665.531,707.334z"/>
		<path fill-rule="evenodd" clip-rule="evenodd" fill="#FBFBFB" d="M665.531,750.421h259.635c5.925,0,10.771,4.847,10.771,10.771
			l0,0c0,5.924-4.847,10.771-10.771,10.771H665.531c-5.924,0-10.771-4.847-10.771-10.771l0,0
			C654.76,755.268,659.607,750.421,665.531,750.421z"/>
		<path fill-rule="evenodd" clip-rule="evenodd" fill="#FBFBFB" d="M665.531,793.499h153.907c5.924,0,10.771,4.847,10.771,10.771
			l0,0c0,5.924-4.847,10.771-10.771,10.771H665.531c-5.924,0-10.771-4.847-10.771-10.771l0,0
			C654.76,798.346,659.607,793.499,665.531,793.499z"/>
		<path fill-rule="evenodd" clip-rule="evenodd" fill="#FBFBFB" d="M665.531,836.599h153.907c5.924,0,10.771,4.847,10.771,10.771
			l0,0c0,5.924-4.847,10.771-10.771,10.771H665.531c-5.924,0-10.771-4.847-10.771-10.771l0,0
			C654.76,841.446,659.607,836.599,665.531,836.599z"/>
		<path fill-rule="evenodd" clip-rule="evenodd" fill="#FBFBFB" d="M490.256,707.334h110.303c10.686,0,19.427,8.742,19.427,19.427
			v111.947c0,10.685-8.742,19.427-19.427,19.427H490.256c-10.685,0-19.427-8.743-19.427-19.427V726.761
			C470.829,716.076,479.571,707.334,490.256,707.334z"/>
		<path fill-rule="evenodd" clip-rule="evenodd" fill="#F5A627" d="M574.084,765.977c0-15.812-12.842-28.67-28.691-28.67
			c-15.846,0-28.676,12.858-28.676,28.67c0.006,10.619,5.794,19.887,14.381,24.853l0.005,23.037c0,7.923,6.4,14.301,14.29,14.301
			c7.883,0,14.294-6.378,14.294-14.301l0.003-23.037C568.288,785.864,574.084,776.596,574.084,765.977z"/>
	</g>
	<g>
		<path fill-rule="evenodd" clip-rule="evenodd" fill="#EF7A00" d="M442.565,1165.486c-17.022,28.261,0.083,47.578,16.137,68.292
			c15.991,20.689,29.307,26.751,25.169,57.364c-8.212,60.781,43.482,122.205,28.608,139.96c-1.088,1.309-2.731,1.354-4.772,0.377
			c-13.43-6.322-44.361-56.323-57.009-81.598c-14.501-29.142-51.017-45.191-65.46-68.276c-14.461-23.127,5.363-43.104-11.734-70.223
			c-17.116-27.161-60.535-25.421-69.199-51.092c-8.665-25.672,12.927-51.571,9.667-79.614
			c-3.215-28.063-20.051-74.372,15.146-88.931c35.177-14.604,61.418,57.053,72.322,66.147c10.904,9.095,43.309,21.698,53.572,37.156
			C465.214,1110.482,459.629,1137.207,442.565,1165.486z"/>
		<path fill-rule="evenodd" clip-rule="evenodd" fill="#EF7A00" d="M488.078,1336.274c3.006,30.546,1.288,50.324,11.026,68.611
			c7.541,14.104,16.016,25.719,9.756,28.155c-1.825,0.697-4.933,0.605-9.717-0.467c0,0-9.035-4.717-25.835-23.337
			c-16.841-18.602-32.248,5.521-65.578,4.551c-33.373-0.951-29.992-28.789-42.375-49.19c-12.406-20.34-36.361,23.752-73.316,6.698
			c-36.956-17.054-10.185-32.335-52.353-63.994c-9.839-7.379-11.281-14.336-7.983-20.565l-0.019-0.043
			c7.067-13.394,36.181-23.568,50.947-27.708c21.593-5.991,41.426-35.9,64.879-13.963c23.514,21.962,27.651,66.93,64.709,64.55
			C449.32,1307.173,485.072,1305.729,488.078,1336.274z"/>
		<path fill-rule="evenodd" clip-rule="evenodd" fill="#FED642" d="M508.84,1432.996l0.02,0.045
			c-1.825,0.697-4.451,2.536-9.717-0.467c0,0-9.035-4.717-25.835-23.337c-16.841-18.602-32.248,5.521-65.578,4.551
			c-33.373-0.951-29.992-28.789-42.375-49.19c-12.406-20.34-36.361,23.752-73.316,6.698c-36.956-17.054-10.185-32.335-52.353-63.994
			c-9.839-7.379-11.281-14.336-7.983-20.565c0,0,55.774,3.08,107.91,19.189C391.705,1322.055,489.166,1396.094,508.84,1432.996z"/>
		<path fill-rule="evenodd" clip-rule="evenodd" fill="#FED642" d="M571.745,1161.653c1.427,22.089-27.221,32.735-26.902,61.186
			c0.22,16.85,28.845,20.248,34.78,47.637c4.764,21.873-22.534,55.267-41.134,72.107c-18.62,16.799-14.426,46.146-14.015,68.525
			c0.348,22.356-10.216,20.078-10.216,20.078c-4.268,0.937-6.047-12.006-9.858-32.063c-3.81-20.057-12.428-50.01-24.022-66.599
			c-11.618-16.527-37.073-46.943-11.4-77.284c25.673-30.341-13.967-39.771-27.522-74.576c-9.102-23.348,21.126-38.689,7.471-63.888
			c-13.654-25.196-0.427-48.362,19.456-62.284c19.882-13.922,21.386-57.881,50.616-52.513c29.229,5.369,21.311,56.51,20.235,85.571
			C538.113,1116.633,569.302,1124.571,571.745,1161.653z"/>
		<path fill-rule="evenodd" clip-rule="evenodd" fill="#EF7A00" d="M571.745,1161.653c1.427,22.089-27.221,32.735-26.902,61.186
			c0.22,16.85,28.845,20.248,34.78,47.637c4.764,21.873-22.534,55.267-41.134,72.107c-18.62,16.799-14.426,46.146-14.015,68.525
			c0.348,22.356-10.216,20.078-10.216,20.078c-3.203-19.387-17.123-174.925-16.402-254.268
			c1.037-114.136,21.142-174.938,21.142-174.938c29.229,5.369,21.311,56.51,20.235,85.571
			C538.113,1116.633,569.302,1124.571,571.745,1161.653z"/>
		<path fill-rule="evenodd" clip-rule="evenodd" fill="#FED642" d="M413.149,1234.688c52.795,116.3,99.329,196.415,99.329,196.415
			c-3.491,0.276-7.021-0.742-9.639-3.067c-14.973-13.294-40.847-55.582-52.143-78.153c-14.501-29.142-51.017-45.191-65.46-68.276
			c-14.461-23.127,5.363-43.104-11.734-70.223c-17.116-27.161-60.535-25.421-69.199-51.092
			c-8.665-25.672,12.927-51.571,9.667-79.614c-3.215-28.063-20.051-74.372,15.146-88.931
			C329.117,991.746,360.398,1118.369,413.149,1234.688z"/>
	</g>
	<g>
		<g>
			<path fill-rule="evenodd" clip-rule="evenodd" fill="#0075BD" d="M637.647,1184.635
				c-77.703-32.454-125.925-117.085-129.464-200.524c-0.303-7.105-11.383-7.182-11.084-0.024
				c3.76,88.436,53.293,176.02,137.573,211.224C641.253,1198.053,644.146,1187.346,637.647,1184.635z"/>
		</g>
		<path fill-rule="evenodd" clip-rule="evenodd" fill="#0075BD" d="M497.929,996.211c0,0-2.303-1.235-5.295-3.521
			c-3.035-2.244-6.721-5.463-10.227-9.421c-6.954-7.837-11.71-18.464-12.186-29.31c-0.483-10.858,3.366-21.849,9.664-30.247
			c3.174-4.2,6.627-7.743,9.497-10.239c2.786-2.5,4.99-3.927,4.99-3.927s2.341,1.26,5.319,3.504c3.07,2.25,6.769,5.497,10.28,9.419
			c6.978,7.863,11.705,18.498,12.113,29.343c0.402,10.858-3.479,21.844-9.75,30.257c-3.142,4.181-6.576,7.716-9.42,10.202
			C500.118,994.771,497.929,996.211,497.929,996.211z"/>
		<path fill-rule="evenodd" clip-rule="evenodd" fill="#0075BD" d="M520.151,1063.514c0,0-2.089,1.603-5.358,3.41
			c-3.314,1.845-7.747,3.913-12.768,5.489c-10,3.16-21.657,3.181-31.752-0.813c-10.118-3.961-18.602-11.963-23.697-21.135
			c-2.555-4.626-4.368-9.199-5.483-12.844c-1.144-3.562-1.557-6.147-1.557-6.147s2.125-1.622,5.369-3.433
			c3.315-1.895,7.776-3.943,12.803-5.572c10.011-3.158,21.651-3.143,31.722,0.91c10.094,4.018,18.548,12.05,23.65,21.223
			c2.565,4.568,4.389,9.139,5.492,12.772C519.728,1060.926,520.151,1063.514,520.151,1063.514z"/>
		<path fill-rule="evenodd" clip-rule="evenodd" fill="#0075BD" d="M532.909,1085.133c0,0-1.085-2.383-2.106-5.998
			c-1.064-3.615-2.055-8.418-2.477-13.666c-0.836-10.455,1.786-21.806,7.934-30.754c6.146-8.959,15.843-15.42,25.944-18.318
			c5.054-1.461,9.944-2.192,13.72-2.46c3.735-0.296,6.375-0.122,6.375-0.122s1.101,2.435,2.128,6.016
			c1.082,3.639,2.094,8.46,2.529,13.71c0.836,10.479-1.825,21.809-8.01,30.705c-6.209,8.913-15.929,15.341-26.014,18.267
			c-5.041,1.464-9.89,2.206-13.672,2.493C535.525,1085.303,532.909,1085.133,532.909,1085.133z"/>
		<path fill-rule="evenodd" clip-rule="evenodd" fill="#0075BD" d="M576.49,1151.52c0,0-1.095-2.384-2.094-6.01
			c-1.066-3.622-2.087-8.413-2.499-13.681c-0.831-10.442,1.787-21.79,7.94-30.752c6.156-8.933,15.853-15.415,25.94-18.294
			c5.071-1.458,9.929-2.209,13.732-2.468c3.737-0.31,6.359-0.114,6.359-0.114s1.091,2.408,2.129,5.991
			c1.094,3.667,2.095,8.475,2.54,13.712c0.835,10.483-1.821,21.824-8.029,30.712c-6.185,8.917-15.917,15.357-25.987,18.275
			c-5.047,1.463-9.909,2.198-13.684,2.478C579.112,1151.681,576.49,1151.52,576.49,1151.52z"/>
		<path fill-rule="evenodd" clip-rule="evenodd" fill="#0075BD" d="M556.185,1137.662c0,0-2.089,1.604-5.357,3.41
			c-3.314,1.846-7.747,3.913-12.768,5.49c-10.001,3.16-21.658,3.181-31.752-0.813c-10.118-3.962-18.602-11.964-23.697-21.136
			c-2.555-4.626-4.368-9.199-5.483-12.845c-1.144-3.562-1.556-6.146-1.556-6.146s2.125-1.622,5.369-3.434
			c3.315-1.895,7.776-3.943,12.803-5.572c10.011-3.158,21.651-3.143,31.721,0.91c10.094,4.018,18.548,12.05,23.65,21.223
			c2.565,4.568,4.389,9.14,5.492,12.771C555.763,1135.075,556.185,1137.662,556.185,1137.662z"/>
	</g>
	<g>
		<g>
			<path fill-rule="evenodd" clip-rule="evenodd" fill="#004DA1" d="M661.883,1179.657c-39.326-42.024-45.641-108.299-24.44-161.298
				c1.805-4.513-5.08-7.669-6.902-3.124c-22.464,56.174-16.16,124.658,26.493,170.241
				C660.367,1189.032,665.173,1183.17,661.883,1179.657z"/>
		</g>
		<path fill-rule="evenodd" clip-rule="evenodd" fill="#004DA1" d="M630.132,1023.822c0,0-0.907-1.466-1.862-3.762
			c-0.993-2.285-2.035-5.342-2.73-8.762c-1.383-6.776-0.589-14.419,2.723-20.773c3.312-6.363,9.143-11.371,15.516-14.089
			c3.201-1.351,6.345-2.234,8.81-2.711c2.417-0.508,4.148-0.595,4.148-0.595s0.921,1.493,1.881,3.76
			c1.01,2.3,2.051,5.377,2.761,8.779c1.388,6.798,0.575,14.437-2.776,20.768c-3.358,6.337-9.205,11.331-15.568,14.066
			c-3.177,1.35-6.308,2.235-8.754,2.716C631.858,1023.723,630.132,1023.822,630.132,1023.822z"/>
		<path fill-rule="evenodd" clip-rule="evenodd" fill="#004DA1" d="M620.589,1069.619c0,0-1.724,0.225-4.188,0.178
			c-2.503-0.041-5.719-0.324-9.109-1.083c-6.758-1.499-13.425-5.339-17.873-10.956c-4.472-5.607-6.675-12.982-6.556-19.907
			c0.069-3.487,0.544-6.699,1.111-9.15c0.523-2.413,1.142-4.027,1.142-4.027s1.75-0.225,4.202-0.187
			c2.52,0.013,5.746,0.316,9.156,1.047c6.764,1.504,13.409,5.359,17.823,11.002c4.44,5.631,6.616,13.014,6.5,19.941
			c-0.044,3.457-0.513,6.672-1.083,9.112C621.202,1068.001,620.589,1069.619,620.589,1069.619z"/>
		<path fill-rule="evenodd" clip-rule="evenodd" fill="#004DA1" d="M620.734,1086.187c0,0,0.167-1.72,0.778-4.123
			c0.587-2.417,1.608-5.489,3.102-8.626c2.977-6.25,8.226-11.869,14.695-14.95c6.472-3.088,14.147-3.575,20.876-1.893
			c3.371,0.835,6.406,2.033,8.652,3.128c2.231,1.064,3.683,2.037,3.683,2.037s-0.176,1.755-0.772,4.141
			c-0.585,2.437-1.6,5.526-3.085,8.669c-2.985,6.264-8.25,11.858-14.723,14.897c-6.493,3.041-14.171,3.501-20.899,1.841
			c-3.364-0.83-6.379-2.008-8.636-3.094C622.173,1087.149,620.734,1086.187,620.734,1086.187z"/>
		<path fill-rule="evenodd" clip-rule="evenodd" fill="#004DA1" d="M623.697,1138.519c0,0,0.162-1.724,0.79-4.125
			c0.588-2.423,1.587-5.497,3.093-8.643c2.976-6.241,8.222-11.859,14.699-14.946c6.469-3.07,14.151-3.568,20.866-1.881
			c3.379,0.843,6.403,2.019,8.662,3.127c2.237,1.058,3.671,2.037,3.671,2.037s-0.172,1.736-0.763,4.126
			c-0.586,2.456-1.604,5.534-3.08,8.674c-2.987,6.265-8.252,11.867-14.736,14.895c-6.48,3.051-14.169,3.515-20.887,1.854
			c-3.367-0.832-6.388-2.019-8.637-3.106C625.142,1139.477,623.697,1138.519,623.697,1138.519z"/>
		<path fill-rule="evenodd" clip-rule="evenodd" fill="#004DA1" d="M621.298,1119.543c0,0-1.682,0.438-4.133,0.698
			c-2.489,0.271-5.715,0.391-9.173,0.061c-6.892-0.646-13.985-3.626-19.098-8.646c-5.136-5.007-8.24-12.05-8.983-18.935
			c-0.366-3.469-0.294-6.715-0.037-9.218c0.219-2.459,0.632-4.138,0.632-4.138s1.708-0.44,4.146-0.709
			c2.502-0.301,5.741-0.401,9.215-0.101c6.898,0.649,13.972,3.647,19.055,8.697c5.106,5.034,8.185,12.088,8.932,18.976
			c0.387,3.436,0.322,6.684,0.061,9.176C621.705,1117.861,621.298,1119.543,621.298,1119.543z"/>
	</g>
	<g>
		<g>
			<path fill-rule="evenodd" clip-rule="evenodd" fill="#0065B1" d="M542.562,1328.254c93.883,0,170.916,72.097,178.782,163.941
				H182.218c16.487-54.148,69.481-93.778,132.313-93.778c26.661,0,51.546,7.143,72.629,19.494
				C418.2,1364.313,476.169,1328.254,542.562,1328.254z"/>
			<path fill-rule="evenodd" clip-rule="evenodd" fill="#87BEE7" d="M542.56,1328.254c56.521,0,106.923,26.136,139.814,66.975
				c-8.981,5.278-18.776,10.282-29.33,14.935c-62.741,27.661-152.244,42.953-240.848,49.476
				c-86.059,6.334-171.262,4.393-208.643-8.292c25.05-32.096,65.427-52.93,110.984-52.93c26.661,0,51.539,7.143,72.62,19.494
				C418.203,1364.313,476.167,1328.254,542.56,1328.254z"/>
		</g>
		<path fill-rule="evenodd" clip-rule="evenodd" fill="#87BEE7" d="M480.926,1326.848c0.924,15.138-8.665,29.233-8.665,29.233
			s-11.085-10.446-12.007-25.584c-0.926-15.139,8.664-29.234,8.664-29.234S480.003,1311.709,480.926,1326.848z"/>
		<path fill-rule="evenodd" clip-rule="evenodd" fill="#87BEE7" d="M461.221,1337.729c11.491,8.683,14.019,24.356,14.019,24.356
			s-16.103,1.597-27.591-7.086c-11.492-8.682-14.021-24.356-14.021-24.356S449.73,1329.046,461.221,1337.729z"/>
		<path fill-rule="evenodd" clip-rule="evenodd" fill="#0065B1" d="M315.097,1450.088c-0.614,10.078,5.771,19.463,5.771,19.463
			s7.38-6.954,7.995-17.033c0.616-10.079-5.768-19.464-5.768-19.464S315.711,1440.01,315.097,1450.088z"/>
		<path fill-rule="evenodd" clip-rule="evenodd" fill="#0065B1" d="M328.218,1457.334c-7.652,5.779-9.334,16.216-9.334,16.216
			s10.72,1.063,18.371-4.719c7.649-5.781,9.332-16.216,9.332-16.216S335.87,1451.553,328.218,1457.334z"/>
	</g>
	<g>
		<path fill-rule="evenodd" clip-rule="evenodd" fill="#DCDDDD" d="M846.966,1170.567H523.279
			c-17.987,0-32.567,14.581-32.567,32.567v208.731c0,17.986,14.581,32.568,32.567,32.568h323.687
			c17.987,0,32.568-14.582,32.568-32.568v-208.731C879.534,1185.148,864.953,1170.567,846.966,1170.567z"/>
		<circle fill-rule="evenodd" clip-rule="evenodd" fill="#FFFFFF" cx="532.403" cy="1207.368" r="12.589"/>
		<circle fill-rule="evenodd" clip-rule="evenodd" fill="#FFFFFF" cx="577.056" cy="1207.368" r="12.589"/>
		<circle fill-rule="evenodd" clip-rule="evenodd" fill="#FFFFFF" cx="623.222" cy="1207.368" r="12.589"/>
		<path fill-rule="evenodd" clip-rule="evenodd" fill="#FFFFFF" d="M603.138,1257.217h-70.56c-6.821,0-12.351,5.53-12.351,12.352
			v70.56c0,6.82,5.53,12.352,12.351,12.352h70.56c6.821,0,12.351-5.531,12.351-12.352v-70.56
			C615.489,1262.747,609.959,1257.217,603.138,1257.217z"/>
		<path fill-rule="evenodd" clip-rule="evenodd" fill="#FFFFFF" d="M773.956,1262.227H653.903c-4.702,0-8.514,3.812-8.514,8.514
			v0.001c0,4.702,3.812,8.515,8.514,8.515h120.053c4.703,0,8.515-3.813,8.515-8.515v-0.001
			C782.471,1266.038,778.658,1262.227,773.956,1262.227z"/>
		<path fill-rule="evenodd" clip-rule="evenodd" fill="#FFFFFF" d="M773.956,1299.689H653.903c-4.702,0-8.514,3.813-8.514,8.515
			s3.812,8.514,8.514,8.514h120.053c4.703,0,8.515-3.812,8.515-8.514S778.658,1299.689,773.956,1299.689z"/>
		<path fill-rule="evenodd" clip-rule="evenodd" fill="#FFFFFF" d="M715.207,1336.302h-61.304c-4.702,0-8.514,3.812-8.514,8.514
			c0,4.703,3.812,8.515,8.514,8.515h61.304c4.703,0,8.515-3.812,8.515-8.515C723.722,1340.113,719.909,1336.302,715.207,1336.302z"
			/>
		<path fill-rule="evenodd" clip-rule="evenodd" fill="#FFFFFF" d="M826.745,1379.725H529.877c-4.703,0-8.514,3.813-8.514,8.515
			c0,4.703,3.812,8.514,8.514,8.514h296.868c4.703,0,8.514-3.811,8.514-8.514C835.259,1383.537,831.448,1379.725,826.745,1379.725z"
			/>
	</g>
	<g>
		<path fill-rule="evenodd" clip-rule="evenodd" fill="#EF7A00" d="M1589.989,994.565c17.413,28.91-0.086,48.672-16.508,69.861
			c-16.358,21.165-29.98,27.366-25.747,58.682c8.4,62.178-44.481,125.013-29.265,143.176c1.113,1.338,2.794,1.385,4.882,0.386
			c13.738-6.468,45.38-57.617,58.319-83.473c14.834-29.811,52.188-46.229,66.963-69.845c14.794-23.659-5.485-44.095,12.004-71.836
			c17.509-27.785,61.926-26.005,70.789-52.266c8.863-26.262-13.225-52.756-9.89-81.443c3.289-28.708,20.511-76.081-15.494-90.974
			c-35.984-14.938-62.829,58.364-73.983,67.667c-11.154,9.304-44.304,22.197-54.803,38.009
			C1566.819,938.298,1572.532,965.637,1589.989,994.565z"/>
		<path fill-rule="evenodd" clip-rule="evenodd" fill="#EF7A00" d="M1543.431,1169.277c-3.076,31.247-1.318,51.479-11.28,70.188
			c-7.714,14.427-16.384,26.31-9.979,28.802c1.866,0.713,5.045,0.619,9.94-0.478c0,0,9.242-4.825,26.428-23.873
			c17.229-19.028,32.989,5.647,67.085,4.655c34.14-0.973,30.681-29.45,43.348-50.32c12.691-20.807,37.197,24.297,75.001,6.852
			c37.805-17.445,10.419-33.077,53.556-65.464c10.064-7.548,11.539-14.665,8.166-21.037l0.02-0.045
			c-7.229-13.7-37.013-24.109-52.117-28.344c-22.09-6.129-42.378-36.725-66.369-14.283c-24.056,22.466-28.287,68.467-66.196,66.033
			C1583.079,1139.507,1546.505,1138.03,1543.431,1169.277z"/>
		<path fill-rule="evenodd" clip-rule="evenodd" fill="#FED642" d="M1522.191,1268.221l-0.02,0.046
			c1.866,0.713,4.553,2.595,9.94-0.478c0,0,9.242-4.825,26.428-23.873c17.229-19.028,32.989,5.647,67.085,4.655
			c34.14-0.973,30.681-29.45,43.348-50.32c12.691-20.807,37.197,24.297,75.001,6.852c37.805-17.445,10.419-33.077,53.556-65.464
			c10.064-7.548,11.539-14.665,8.166-21.037c0,0-57.055,3.15-110.389,19.63C1642.017,1154.731,1542.317,1230.471,1522.191,1268.221z
			"/>
		<path fill-rule="evenodd" clip-rule="evenodd" fill="#FED642" d="M1457.841,990.645c-1.46,22.597,27.846,33.488,27.52,62.591
			c-0.225,17.237-29.508,20.713-35.578,48.731c-4.873,22.375,23.051,56.536,42.078,73.765c19.048,17.184,14.757,47.205,14.337,70.1
			c-0.356,22.869,10.45,20.538,10.45,20.538c4.366,0.959,6.187-12.282,10.085-32.799c3.896-20.517,12.713-51.158,24.574-68.129
			c11.884-16.906,37.925-48.021,11.662-79.059c-26.263-31.038,14.288-40.684,28.154-76.289c9.312-23.884-21.61-39.579-7.642-65.355
			c13.968-25.775,0.437-49.473-19.902-63.714s-21.878-59.211-51.779-53.72c-29.9,5.492-21.801,57.808-20.7,87.537
			C1492.246,944.59,1460.34,952.711,1457.841,990.645z"/>
		<path fill-rule="evenodd" clip-rule="evenodd" fill="#EF7A00" d="M1457.841,990.645c-1.46,22.597,27.846,33.488,27.52,62.591
			c-0.225,17.237-29.508,20.713-35.578,48.731c-4.873,22.375,23.051,56.536,42.078,73.765c19.048,17.184,14.757,47.205,14.337,70.1
			c-0.356,22.869,10.45,20.538,10.45,20.538c3.277-19.832,17.517-178.943,16.779-260.108
			c-1.061-116.758-21.627-178.957-21.627-178.957c-29.9,5.492-21.801,57.808-20.7,87.537
			C1492.246,944.59,1460.34,952.711,1457.841,990.645z"/>
		<path fill-rule="evenodd" clip-rule="evenodd" fill="#FED642" d="M1620.081,1065.357
			c-54.009,118.971-101.611,200.927-101.611,200.927c3.57,0.282,7.182-0.76,9.86-3.139c15.316-13.599,41.785-56.858,53.341-79.948
			c14.834-29.811,52.188-46.229,66.963-69.845c14.794-23.659-5.485-44.095,12.004-71.836c17.509-27.785,61.926-26.005,70.789-52.266
			c8.863-26.262-13.225-52.756-9.89-81.443c3.289-28.708,20.511-76.081-15.494-90.974
			C1706.042,816.834,1674.042,946.366,1620.081,1065.357z"/>
	</g>
	<path fill-rule="evenodd" clip-rule="evenodd" fill="#006AB5" d="M833.287,1707.07c32.945,0,62.681,13.712,83.826,35.745
		c8.725-9.096,21.002-14.76,34.604-14.76c13.605,0,25.883,5.664,34.612,14.76h-69.215H749.47H615.354
		c16.915-17.625,40.704-28.595,67.058-28.595c26.355,0,50.143,10.97,67.058,28.595C770.61,1720.782,800.347,1707.07,833.287,1707.07
		z"/>
	<path fill-rule="evenodd" clip-rule="evenodd" fill="#006AB5" d="M302.338,1549.163c25.454,0,48.43,10.594,64.767,27.617
		c6.741-7.028,16.227-11.403,26.736-11.403c10.511,0,19.998,4.375,26.742,11.403h-53.478H237.578
		C253.913,1559.757,276.888,1549.163,302.338,1549.163z"/>
	<path fill-rule="evenodd" clip-rule="evenodd" fill="#006AB5" d="M1442.632,1641.925c-20.752,0-39.483,8.638-52.803,22.517
		c-5.496-5.73-13.229-9.298-21.797-9.298c-8.57,0-16.304,3.567-21.802,9.298h43.599h105.6
		C1482.112,1650.563,1463.381,1641.925,1442.632,1641.925z"/>
	<path fill-rule="evenodd" clip-rule="evenodd" fill="#EF7A00" d="M780.898,1649.722h-45.074c-3.882,0-7.059-3.176-7.059-7.058
		s3.176-7.058,7.059-7.058h45.074c3.882,0,7.059,3.176,7.059,7.058S784.78,1649.722,780.898,1649.722z"/>
	<path fill-rule="evenodd" clip-rule="evenodd" fill="#EF7A00" d="M550.049,1626.253h-26.201c-4.017,0-7.303-3.286-7.303-7.303
		v-0.834c0-4.017,3.286-7.303,7.303-7.303h26.201c4.016,0,7.303,3.286,7.303,7.303v0.834
		C557.352,1622.967,554.065,1626.253,550.049,1626.253z"/>
	<path fill-rule="evenodd" clip-rule="evenodd" fill="#EF7A00" d="M607.278,1626.253h-26.2c-4.017,0-7.304-3.286-7.304-7.303v-0.834
		c0-4.017,3.287-7.303,7.304-7.303h26.2c4.016,0,7.303,3.286,7.303,7.303v0.834C614.582,1622.967,611.294,1626.253,607.278,1626.253
		z"/>
	<path fill-rule="evenodd" clip-rule="evenodd" fill="#EF7A00" d="M658.149,1626.253h-26.2c-4.017,0-7.303-3.286-7.303-7.303v-0.834
		c0-4.017,3.286-7.303,7.303-7.303h26.2c4.017,0,7.304,3.286,7.304,7.303v0.834C665.453,1622.967,662.167,1626.253,658.149,1626.253
		z"/>
	<path fill-rule="evenodd" clip-rule="evenodd" fill="#EF7A00" d="M709.28,1650.625h-26.2c-4.017,0-7.304-3.286-7.304-7.303v-0.833
		c0-4.018,3.287-7.304,7.304-7.304h26.2c4.017,0,7.303,3.286,7.303,7.304v0.833C716.583,1647.339,713.296,1650.625,709.28,1650.625z
		"/>
	<path fill-rule="evenodd" clip-rule="evenodd" fill="#EF7A00" d="M728.259,1625.533h-44.073c-4.07,0-7.4-3.33-7.4-7.4
		c0-4.069,3.33-7.399,7.4-7.399h44.073c4.07,0,7.4,3.33,7.4,7.399C735.659,1622.203,732.329,1625.533,728.259,1625.533z"/>
	<g>
		<g>
			<path fill-rule="evenodd" clip-rule="evenodd" fill="#EF7A00" d="M1291.607,433.274c18.8,0,18.831-29.22,0-29.22
				C1272.805,404.054,1272.773,433.274,1291.607,433.274z"/>
		</g>
	</g>
	<g>
		<g>
			<path fill-rule="evenodd" clip-rule="evenodd" fill="#EF7A00" d="M1340.888,433.274c18.801,0,18.832-29.22,0-29.22
				C1322.086,404.054,1322.055,433.274,1340.888,433.274z"/>
		</g>
	</g>
	<g>
		<g>
			<path fill-rule="evenodd" clip-rule="evenodd" fill="#EF7A00" d="M1243.156,433.274c18.8,0,18.831-29.22,0-29.22
				C1224.354,404.054,1224.322,433.274,1243.156,433.274z"/>
		</g>
	</g>
	<g>
		<g>
			<path fill-rule="evenodd" clip-rule="evenodd" fill="#0075BD" d="M1241.732,388.648c18.8,0,18.831-29.22,0-29.22
				C1222.93,359.429,1222.898,388.648,1241.732,388.648z"/>
		</g>
	</g>
	<g>
		<g>
			<path fill-rule="evenodd" clip-rule="evenodd" fill="#0075BD" d="M1291.013,388.648c18.801,0,18.832-29.22,0-29.22
				C1272.211,359.429,1272.18,388.648,1291.013,388.648z"/>
		</g>
	</g>
	<g>
		<g>
			<path fill-rule="evenodd" clip-rule="evenodd" fill="#0075BD" d="M1193.28,388.648c18.801,0,18.832-29.22,0-29.22
				C1174.479,359.429,1174.447,388.648,1193.28,388.648z"/>
		</g>
	</g>
	<g>
		<g>
			<path fill-rule="evenodd" clip-rule="evenodd" fill="#0075BD" d="M651.869,543.535c18.8,0,18.832-29.22,0-29.22
				C633.067,514.315,633.035,543.535,651.869,543.535z"/>
		</g>
	</g>
	<g>
		<g>
			<path fill-rule="evenodd" clip-rule="evenodd" fill="#0075BD" d="M701.15,543.535c18.8,0,18.832-29.22,0-29.22
				C682.349,514.315,682.317,543.535,701.15,543.535z"/>
		</g>
	</g>
	<g>
		<g>
			<path fill-rule="evenodd" clip-rule="evenodd" fill="#0075BD" d="M603.417,543.535c18.8,0,18.832-29.22,0-29.22
				C584.616,514.315,584.584,543.535,603.417,543.535z"/>
		</g>
	</g>
	<g>
		<path fill-rule="evenodd" clip-rule="evenodd" fill="#C9CACA" d="M1794.848,1181.2h-456.691
			c-31.215,0-56.522,25.306-56.522,56.522v238.798c0,31.215,25.308,56.521,56.522,56.521h456.691
			c31.216,0,56.522-25.307,56.522-56.521v-238.798C1851.371,1206.506,1826.064,1181.2,1794.848,1181.2z"/>
		<g>
			<path fill-rule="evenodd" clip-rule="evenodd" fill="#004DA1" d="M1727.875,1244.156h-456.692
				c-31.215,0-56.521,25.307-56.521,56.522v238.797c0,31.218,25.307,56.522,56.521,56.522h456.692
				c31.215,0,56.521-25.305,56.521-56.522v-238.797C1784.396,1269.463,1759.089,1244.156,1727.875,1244.156z"/>
			<g>
				<path fill-rule="evenodd" clip-rule="evenodd" fill="#F5A627" d="M1378.761,1304.618v56.89c0,9.829-7.891,17.718-17.718,17.718
					h-83.823c-9.758,0-17.718-7.889-17.718-17.718v-56.89c0-9.758,7.96-17.647,17.718-17.647h83.823
					C1370.871,1286.971,1378.761,1294.86,1378.761,1304.618z"/>
				<g>
					<g>
						<path fill-rule="evenodd" clip-rule="evenodd" fill="#F18B00" d="M1296.322,1316.177c0,3.737-3.046,6.783-6.713,6.783h-30.106
							v-13.496h30.106C1293.276,1309.464,1296.322,1312.509,1296.322,1316.177z"/>
						<path fill-rule="evenodd" clip-rule="evenodd" fill="#F18B00" d="M1296.322,1349.95c0,3.737-3.046,6.783-6.713,6.783h-30.106
							v-13.496h30.106C1293.276,1343.237,1296.322,1346.282,1296.322,1349.95z"/>
					</g>
					<g>
						<path fill-rule="evenodd" clip-rule="evenodd" fill="#F18B00" d="M1378.761,1309.464v13.496h-30.037
							c-3.738,0-6.783-3.046-6.783-6.783c0-3.668,3.045-6.713,6.783-6.713H1378.761z"/>
						<path fill-rule="evenodd" clip-rule="evenodd" fill="#F18B00" d="M1378.761,1343.237v13.496h-30.037
							c-3.738,0-6.783-3.046-6.783-6.783c0-3.668,3.045-6.713,6.783-6.713H1378.761z"/>
					</g>
				</g>
			</g>
			<path fill-rule="evenodd" clip-rule="evenodd" fill="#F5A627" d="M1459.245,1448.321H1268.07c-3.941,0-7.165,3.226-7.165,7.167
				v11.642c0,3.94,3.224,7.164,7.165,7.164h191.175c3.941,0,7.165-3.224,7.165-7.164v-11.642
				C1466.41,1451.547,1463.186,1448.321,1459.245,1448.321z"/>
			<path fill-rule="evenodd" clip-rule="evenodd" fill="#F5A627" d="M1384.9,1495.071h-116.83c-3.941,0-7.165,3.227-7.165,7.165
				v11.644c0,3.94,3.224,7.164,7.165,7.164h116.83c3.939,0,7.165-3.224,7.165-7.164v-11.644
				C1392.065,1498.298,1388.839,1495.071,1384.9,1495.071z"/>
			<path fill-rule="evenodd" clip-rule="evenodd" fill="#F5A627" d="M1634.328,1484.333c0,14.024,5.221,26.726,13.948,36.387
				c-6.001,3.351-12.936,5.299-20.337,5.299c-22.986,0-41.685-18.7-41.685-41.686s18.698-41.607,41.685-41.607
				c7.401,0,14.336,1.948,20.337,5.298C1639.548,1457.686,1634.328,1470.308,1634.328,1484.333z"/>
			<circle fill-rule="evenodd" clip-rule="evenodd" fill="#FBFBFB" cx="1688.948" cy="1484.359" r="41.642"/>
		</g>
	</g>
	<g>
		<g>
			<path fill-rule="evenodd" clip-rule="evenodd" fill="#0075BD" d="M1476.535,770.449c-157.094,0-362.315-133.712-363.424-135.058
				c-1.108,1.346-206.334,135.058-363.428,135.058c-22.186,0-43.929-1.104-65.143-3.145v252.986
				c0,234.223,116.192,451.101,305.748,570.682l122.823,77.483l122.818-77.483c189.555-119.581,305.747-336.459,305.747-570.682
				V767.304C1520.463,769.345,1498.72,770.449,1476.535,770.449z"/>
			<path fill-rule="evenodd" clip-rule="evenodd" fill="#F5A627" d="M1028.7,1530.087
				c-167.88-105.906-272.172-301.246-272.172-509.792V842.372c74.626-1.444,163.432-26.274,264.127-73.863
				c0.782-0.37,50.321-24.402,92.456-48.668c42.136,24.266,91.674,48.299,92.456,48.668
				c100.696,47.594,189.502,72.424,264.128,73.863v177.922c0,208.546-104.293,403.886-272.178,509.792l-84.406,53.253
				L1028.7,1530.087z"/>
			<path fill-rule="evenodd" clip-rule="evenodd" fill="#EF7A00" d="M1428.25,839.324v133.021
				c0,229.916-114.977,445.273-300.069,562.035l-46.34,29.238l31.271,19.722l84.406-53.253
				c167.885-105.906,272.178-301.246,272.178-509.792V842.372C1456.336,842.114,1442.502,841.074,1428.25,839.324z"/>
		</g>
		<g>
			<path fill-rule="evenodd" clip-rule="evenodd" fill="#8A6728" d="M1253.93,1062.042c0-78.448-67.914-141.03-148.148-132.164
				c-59.075,6.529-107.833,53.376-116.392,112.187c-6.837,46.978,10.915,90.141,42.279,118.552
				c21.501,19.473,32.494,48.023,32.494,77.028v78.221c0,27.288,18.274,52.372,45.032,57.73
				c36.487,7.308,68.505-20.403,68.505-55.592v-83.356c0-27.791,11.011-54.86,31.75-73.362
				C1236.742,1136.934,1253.93,1101.498,1253.93,1062.042z"/>
			<path fill-rule="evenodd" clip-rule="evenodd" fill="#0075BD" d="M1253.93,1062.042c0-78.448-67.914-141.03-148.148-132.164
				c-59.075,6.529-107.833,53.376-116.392,112.187c-6.837,46.978,10.915,90.141,42.279,118.552
				c21.501,19.473,32.494,48.023,32.494,77.028v78.221c0,27.288,18.274,52.372,45.032,57.73
				c36.487,7.308,68.505-20.403,68.505-55.592v-83.356c0-27.791,11.011-54.86,31.75-73.362
				C1236.742,1136.934,1253.93,1101.498,1253.93,1062.042z"/>
			<path fill-rule="evenodd" clip-rule="evenodd" fill="#FBFBFB" d="M1109.221,1373.646c1.139,0.23,2.394,0.458,3.532,0.57
				c-6.153,0.911-12.648,0.8-19.255-0.57c-26.777-5.353-45.008-30.536-45.008-57.768v-78.276c0-28.943-10.939-57.544-32.476-77.026
				c-31.333-28.373-49.106-71.558-42.272-118.501c8.546-58.792,57.313-105.623,116.335-112.23c7.75-0.799,15.271-1.027,22.675-0.572
				c-2.278,0.115-4.671,0.342-6.95,0.572c-59.137,6.607-107.904,53.439-116.45,112.23c-6.834,46.944,10.939,90.128,42.272,118.501
				c21.536,19.482,32.587,48.083,32.587,77.026v78.276C1064.213,1343.11,1082.444,1368.294,1109.221,1373.646z"/>
			<path fill-rule="evenodd" clip-rule="evenodd" fill="#004DA1" d="M1105.782,929.879c-0.818,0.09-1.609,0.268-2.421,0.373
				c56.128,15.592,97.398,66.896,97.398,127.991c0,39.459-17.188,74.894-44.482,99.244c-20.736,18.505-31.75,45.571-31.75,73.365
				v83.356c0,23.16-13.908,43.007-33.798,51.836c5.515,3.582,11.714,6.202,18.467,7.553c36.487,7.308,68.505-20.403,68.505-55.592
				v-83.356c0-27.791,11.011-54.86,31.75-73.362c27.294-24.353,44.479-59.788,44.479-99.247
				C1253.93,983.594,1186.016,921.012,1105.782,929.879z"/>
		</g>
	</g>
	<g>
		<path fill-rule="evenodd" clip-rule="evenodd" fill="#FBFBFB" d="M871.599,1284.668H762.738c-11.336,0-20.526,9.189-20.526,20.526
			v120.681c0,11.336,9.19,20.526,20.526,20.526h144.133c11.336,0,20.526-9.19,20.526-20.526v-85.409L871.599,1284.668z"/>
		<path fill-rule="evenodd" clip-rule="evenodd" fill="#004DA1" d="M822.422,1397.961l-10.349-14.638
			c-4.469-6.322-11.729-10.08-19.47-10.08h-58.22c-13.169,0-23.844,10.676-23.844,23.844v10.953v133.77
			c0,13.169,10.675,23.844,23.844,23.844h196.834c13.168,0,23.843-10.675,23.843-23.844v-109.925
			c0-13.169-10.675-23.845-23.843-23.845h-89.326C834.15,1408.04,826.891,1404.282,822.422,1397.961z"/>
		<path fill-rule="evenodd" clip-rule="evenodd" fill="#0075BD" d="M871.599,1319.939c0,11.337,9.189,20.526,20.526,20.526h35.272
			l-55.798-55.798V1319.939z"/>
	</g>
</g>
</svg>
