<svg width="124" height="130" viewBox="0 0 124 130" fill="none" xmlns="http://www.w3.org/2000/svg">
<circle cx="62" cy="62" r="62" fill="#D5DEE4"/>
<mask id="mask0_161_49" style="mask-type:alpha" maskUnits="userSpaceOnUse" x="6" y="23" width="107" height="107">
<path d="M89.7787 99.5391C75.7491 94.4283 71.2641 90.1141 71.2641 80.8767C71.2641 75.3333 75.8611 71.7405 77.428 66.9896C78.9951 62.2385 79.9016 56.6135 80.6551 52.5217C81.4086 48.43 81.708 46.8474 82.1177 42.4876C82.6188 37.0466 78.9763 23 59.5 23C40.0295 23 36.3754 37.0466 36.8877 42.4876C37.2975 46.8474 37.5985 48.4302 38.3504 52.5217C39.1023 56.6134 40 62.2381 41.566 66.9896C43.1319 71.7409 47.7354 75.3333 47.7354 80.8767C47.7354 90.1141 43.2505 94.4282 29.2211 99.5391C15.1406 104.662 6 109.713 6 113.281V130H113V113.281C113 109.718 103.854 104.667 89.7787 99.5391V99.5391Z" fill="black"/>
</mask>
<g mask="url(#mask0_161_49)">
<circle cx="62" cy="62" r="62" fill="#3AACFF"/>
</g>
</svg>
